<svg width="117" height="110" fill="none" xmlns="http://www.w3.org/2000/svg"><path d="M61.3 61.887v-3.71l1.051-.161c1.414-.218 4.703-1.167 4.703-5.216V21.126L51.808 51.214 36.575 21.126V52.8c0 .19.048 4.671 4.656 5.232l1.099.133v3.722H21.002v-3.71l1.056-.161c1.414-.218 4.703-1.167 4.703-5.216V9.657c0-.19-.052-4.67-4.66-5.231l-1.099-.134V.57h15.53L51.817 29.2 67.097.57h15.526v3.71l-1.056.166c-1.414.218-4.703 1.162-4.703 5.211v43.14c0 .189.052 4.67 4.66 5.231l1.099.133v3.722H61.299v.004Z" fill="#FED103"/><path d="M35.312 15.882 51.808 48.46l16.504-32.574v36.91c0 4.38-3.306 5.999-5.754 6.379v1.53h18.806v-1.506c-4.522-.55-5.758-4.332-5.758-6.403V9.657c0-4.376 3.306-5.998 5.758-6.378v-1.53H67.877L51.812 31.836 35.748 1.75H22.26v1.502c4.517.553 5.758 4.331 5.758 6.402v43.14c0 4.38-3.306 5.998-5.758 6.377v1.53h18.806v-1.505c-4.518-.55-5.755-4.332-5.755-6.403v-36.91Z" fill="#860038"/><path d="M70.304 109.41c-6.302 0-12.276-2.252-16.815-6.35-4.775-4.307-7.413-10.096-7.43-16.3V56.913c0-.186-.052-4.477-4.462-5.014l-1.1-.133v-3.674h20.686v3.658l-1.056.161c-1.353.21-4.504 1.118-4.504 4.998v30.919c.616 7.109 7.052 12.672 14.681 12.672 7.63 0 14.043-5.543 14.677-12.632V56.914c0-.186-.048-4.477-4.462-5.014l-1.094-.133v-3.674h20.685v3.658l-1.052.161c-1.353.21-4.504 1.118-4.504 4.998v30.144c0 .08 0 .185-.013.302-.181 5.98-2.797 11.534-7.422 15.7-4.543 4.094-10.513 6.346-16.81 6.346l-.005.008Z" fill="#FED103"/><path d="M80.683 49.276v1.454c4.367.529 5.56 4.182 5.56 6.184v31.004c-.663 7.702-7.542 13.762-15.939 13.762-8.396 0-15.302-6.08-15.94-13.802V56.914c0-4.23 3.194-5.797 5.56-6.16v-1.478H41.762v1.454c4.366.529 5.56 4.182 5.56 6.184v29.841c.013 6.068 2.712 11.55 7.04 15.454 4.133 3.726 9.75 6.023 15.939 6.023 6.19 0 11.806-2.293 15.935-6.015 4.345-3.916 7.048-9.418 7.048-15.514V56.914c0-4.23 3.19-5.797 5.56-6.16v-1.478H80.679h.004Zm16.483 37.915h-.737v-.35h1.85v.35h-.738v1.841h-.375v-1.84Zm1.586-.35h.595l.699 1.662.698-1.663h.577v2.192h-.375v-1.84h-.013l-.771 1.84h-.254l-.772-1.84h-.013v1.84h-.375V86.84h.004Z" fill="#860038"/><path d="M60.95 91.575c-16.146 0-31.344-3.395-42.797-9.563C6.489 75.73.063 67.309.063 58.295c0-9.015 6.426-17.436 18.094-23.718 11.453-6.164 26.651-9.559 42.798-9.559 11.646 0 22.957 1.793 32.711 5.18 9.573 3.326 17.228 8.025 22.142 13.592l1.13 1.28-9.375 3.128-.557-.545c-8.508-8.372-26.586-13.782-46.051-13.782-13.772 0-26.703 2.584-36.405 7.27-9.444 4.562-14.643 10.541-14.643 16.835 0 6.293 5.203 12.272 14.643 16.834 9.702 4.69 22.633 7.27 36.405 7.27 18.802 0 36.056-4.917 45.03-12.833l.552-.489 9.952 3.323-1.189 1.287C104.903 84.6 84.08 91.58 60.955 91.58l-.005-.004Z" fill="#FED103"/><path d="M60.95 83.243c-28.879 0-52.288-11.312-52.288-25.271 0-13.96 23.413-25.268 52.288-25.268 20.617 0 38.44 5.77 46.953 14.146l6.948-2.317C105.278 33.685 84.743 26.18 60.955 26.18c-32.949 0-59.651 14.38-59.651 32.114 0 17.734 26.702 32.117 59.646 32.117 23.393 0 43.634-7.25 53.406-17.806l-7.526-2.511c-8.88 7.835-26.09 13.148-45.88 13.148Z" fill="#860038"/></svg>